# xmcd
#
# Track frame offsets: 
#        150
#        26443
#        60438
#        87595
#        120545
#        147691
#        172929
#        201900
#        236542
#        272653
#        297411
#        330156
#
# Disc length: 4764 seconds
#
# Revision: 3
# Processed by: cddbd v1.5.2PL0 Copyright (c) Steve Scherf et al.
# Submitted via: ExactAudioCopy v0.99pb4
#
DISCID=aa129a0c
DTITLE=Various Artist - Disco Heaven 01.05 CD1
DYEAR=2005
DGENRE=House
TTITLE0=SHAWN CHRISTOPHER - You Can Make It (Jamie Lewis Classic Mix)
TTITLE1=K&M feat. JOY - Pink Is The Colour (Kupper's Heavenly Disco Mi
TTITLE1=x)
TTITLE2=SOUL REBELS feat. LISA MILLET - I'll Be Good (Soul Rebels Club
TTITLE2=Mix)
TTITLE3=STONEBRIDGE feat. THERESE - Take Me Away (MaUVe Vocal Mix)
TTITLE4=SECRET SOUNDS - Come Back Home
TTITLE5=MAYHEM and BONES - Feels Good (Club Mix)
TTITLE6=POLYPHONICS - Nightlights (Seamus Haji Vocal Mix)
TTITLE7=SOULSHAKER feat. LORRAINE BROWN - Hypnotic, Erotic Games (Soul
TTITLE7=shaker Club Mix)
TTITLE8=100% feat. JENNIFER JOHN - Just Can't Wait (Saturday) (Stonebr
TTITLE8=idge Club Mix)
TTITLE9=STEVE ANDERS vs. ANDREA T. MENDOZA - Can't Fake It (Andrea T. 
TTITLE9=Mendoza vs. Tibet Vocal)
TTITLE10=ANDREA T. MENDOZA and TIBET feat. IFE CORCORAN - Could It Be Ma
TTITLE10=gic (Original Mix)
TTITLE11=SOLITAIRE - You Got The Love (Extended Club Mix)
EXTD=
EXTT0=
EXTT1=
EXTT2=
EXTT3=
EXTT4=
EXTT5=
EXTT6=
EXTT7=
EXTT8=
EXTT9=
EXTT10=
EXTT11=
PLAYORDER=
